<mxfile host="Electron" agent="Mozilla/5.0 (Macintosh; Intel Mac OS X 10_15_7) AppleWebKit/537.36 (KHTML, like Gecko) draw.io/27.0.9 Chrome/134.0.6998.205 Electron/35.4.0 Safari/537.36" version="27.0.9">
  <diagram name="Page-1" id="NCoRQ1SPWpMfgyG7BaxS">
    <mxGraphModel dx="1106" dy="859" grid="0" gridSize="10" guides="1" tooltips="1" connect="1" arrows="1" fold="1" page="1" pageScale="1" pageWidth="850" pageHeight="1100" background="none" math="0" shadow="0">
      <root>
        <mxCell id="0" />
        <mxCell id="1" parent="0" />
        <mxCell id="7VRKnyWv5zTI4xvbnFR_-1" value="START" style="ellipse;whiteSpace=wrap;html=1;align=center;fontSize=13;textShadow=0;spacing=6;fillColor=#d5e8d4;strokeColor=#82b366;" vertex="1" parent="1">
          <mxGeometry x="40" y="80" width="120" height="80" as="geometry" />
        </mxCell>
        <mxCell id="7VRKnyWv5zTI4xvbnFR_-2" value="INITIALIZE&lt;div&gt;&lt;br&gt;&lt;div&gt;&lt;span style=&quot;background-color: transparent; color: light-dark(rgb(0, 0, 0), rgb(255, 255, 255));&quot;&gt;&lt;b&gt;Create the frontier&lt;/b&gt;&lt;/span&gt;&lt;/div&gt;&lt;div&gt;&lt;span style=&quot;background-color: rgb(255, 255, 255); color: rgb(4, 12, 40); font-family: &amp;quot;Google Sans&amp;quot;, Roboto, Arial, sans-serif; text-align: start;&quot;&gt;&lt;font&gt;•&amp;nbsp;&lt;/font&gt;&lt;/span&gt;&lt;span style=&quot;background-color: transparent; color: light-dark(rgb(0, 0, 0), rgb(255, 255, 255));&quot;&gt;&lt;font&gt;stac&lt;/font&gt;k for DFS&lt;/span&gt;&lt;/div&gt;&lt;div&gt;&lt;span style=&quot;background-color: rgb(255, 255, 255); color: rgb(4, 12, 40); font-family: &amp;quot;Google Sans&amp;quot;, Roboto, Arial, sans-serif; text-align: start;&quot;&gt;•&amp;nbsp;&lt;/span&gt;&lt;span style=&quot;background-color: transparent; color: light-dark(rgb(0, 0, 0), rgb(255, 255, 255));&quot;&gt;queue for BFS&lt;/span&gt;&lt;/div&gt;&lt;div&gt;&lt;span style=&quot;background-color: rgb(255, 255, 255); color: rgb(4, 12, 40); font-family: &amp;quot;Google Sans&amp;quot;, Roboto, Arial, sans-serif; text-align: start;&quot;&gt;•&amp;nbsp;&lt;/span&gt;&lt;span style=&quot;background-color: transparent; color: light-dark(rgb(0, 0, 0), rgb(255, 255, 255));&quot;&gt;priority queue for A* with&amp;nbsp;&lt;/span&gt;&lt;/div&gt;&lt;div&gt;&lt;span style=&quot;background-color: transparent; color: light-dark(rgb(0, 0, 0), rgb(255, 255, 255));&quot;&gt;&lt;i&gt;f&lt;/i&gt;(&lt;i&gt;n&lt;/i&gt;) = CSF(&lt;i&gt;n&lt;/i&gt;) + CTG(&lt;i&gt;n&lt;/i&gt;)&lt;/span&gt;&lt;/div&gt;&lt;div&gt;&lt;span style=&quot;background-color: transparent; color: light-dark(rgb(0, 0, 0), rgb(255, 255, 255));&quot;&gt;&lt;br&gt;&lt;/span&gt;&lt;/div&gt;&lt;div&gt;&lt;span style=&quot;background-color: transparent; color: light-dark(rgb(0, 0, 0), rgb(255, 255, 255));&quot;&gt;&lt;b&gt;Add the starting node to the frontier&lt;/b&gt;&lt;/span&gt;&lt;/div&gt;&lt;div&gt;&lt;span style=&quot;background-color: transparent; color: light-dark(rgb(0, 0, 0), rgb(255, 255, 255));&quot;&gt;&lt;b&gt;&lt;br&gt;&lt;/b&gt;&lt;/span&gt;&lt;/div&gt;&lt;div&gt;&lt;span style=&quot;background-color: transparent; color: light-dark(rgb(0, 0, 0), rgb(255, 255, 255));&quot;&gt;&lt;b&gt;Create an empty set that visited nodes can be added to&lt;/b&gt;&lt;/span&gt;&lt;/div&gt;&lt;/div&gt;" style="rounded=0;whiteSpace=wrap;html=1;align=center;fontSize=13;textShadow=0;spacing=6;" vertex="1" parent="1">
          <mxGeometry x="200" width="200" height="240" as="geometry" />
        </mxCell>
        <mxCell id="7VRKnyWv5zTI4xvbnFR_-3" value="WHILE&lt;div&gt;Frontier is not empty&lt;/div&gt;" style="rhombus;whiteSpace=wrap;html=1;fontSize=13;textShadow=0;spacing=6;fillColor=#fff2cc;strokeColor=#d6b656;" vertex="1" parent="1">
          <mxGeometry x="440" y="40" width="160" height="160" as="geometry" />
        </mxCell>
        <mxCell id="7VRKnyWv5zTI4xvbnFR_-5" value="RETURN FAILURE&lt;div&gt;No path found&lt;/div&gt;" style="ellipse;whiteSpace=wrap;html=1;fontSize=13;textShadow=0;spacing=6;fillColor=#f8cecc;strokeColor=#b85450;" vertex="1" parent="1">
          <mxGeometry x="680" y="80" width="120" height="80" as="geometry" />
        </mxCell>
        <mxCell id="7VRKnyWv5zTI4xvbnFR_-7" value="&lt;b&gt;Remove a node &lt;i&gt;n&lt;/i&gt;&amp;nbsp;from the frontier&lt;br&gt;&lt;/b&gt;&lt;div&gt;&lt;span style=&quot;background-color: rgb(255, 255, 255); color: rgb(4, 12, 40); font-family: &amp;quot;Google Sans&amp;quot;, Roboto, Arial, sans-serif; text-align: start;&quot;&gt;•&amp;nbsp;&lt;/span&gt;DFS: Pop from the end (stack behavior)&lt;/div&gt;&lt;div&gt;&lt;span style=&quot;background-color: rgb(255, 255, 255); color: rgb(4, 12, 40); font-family: &amp;quot;Google Sans&amp;quot;, Roboto, Arial, sans-serif; text-align: start;&quot;&gt;•&amp;nbsp;&lt;/span&gt;BFS: Dequeue from the front (queue behavior)&lt;/div&gt;&lt;div&gt;&lt;span style=&quot;background-color: rgb(255, 255, 255); color: rgb(4, 12, 40); font-family: &amp;quot;Google Sans&amp;quot;, Roboto, Arial, sans-serif; text-align: start;&quot;&gt;•&amp;nbsp;&lt;/span&gt;A*: Pop node with lowest value for&amp;nbsp;&lt;i style=&quot;background-color: transparent; color: light-dark(rgb(0, 0, 0), rgb(255, 255, 255));&quot;&gt;f&lt;/i&gt;&lt;span style=&quot;background-color: transparent; color: light-dark(rgb(0, 0, 0), rgb(255, 255, 255));&quot;&gt;(&lt;/span&gt;&lt;i style=&quot;background-color: transparent; color: light-dark(rgb(0, 0, 0), rgb(255, 255, 255));&quot;&gt;n&lt;/i&gt;&lt;span style=&quot;background-color: transparent; color: light-dark(rgb(0, 0, 0), rgb(255, 255, 255));&quot;&gt;) = CSF(&lt;/span&gt;&lt;i style=&quot;background-color: transparent; color: light-dark(rgb(0, 0, 0), rgb(255, 255, 255));&quot;&gt;n&lt;/i&gt;&lt;span style=&quot;background-color: transparent; color: light-dark(rgb(0, 0, 0), rgb(255, 255, 255));&quot;&gt;) + CTG(&lt;/span&gt;&lt;i style=&quot;background-color: transparent; color: light-dark(rgb(0, 0, 0), rgb(255, 255, 255));&quot;&gt;n&lt;/i&gt;&lt;span style=&quot;background-color: transparent; color: light-dark(rgb(0, 0, 0), rgb(255, 255, 255));&quot;&gt;)&lt;/span&gt;&lt;/div&gt;" style="rounded=0;whiteSpace=wrap;html=1;fontSize=13;textShadow=0;spacing=6;" vertex="1" parent="1">
          <mxGeometry x="440" y="280" width="200" height="200" as="geometry" />
        </mxCell>
        <mxCell id="7VRKnyWv5zTI4xvbnFR_-9" value="IF&lt;br&gt;&lt;div&gt;&lt;i&gt;n&lt;/i&gt;&amp;nbsp;is the&amp;nbsp;&lt;/div&gt;&lt;div&gt;treasure node&lt;/div&gt;" style="rhombus;whiteSpace=wrap;html=1;fontSize=13;textShadow=0;spacing=6;fillColor=#fff2cc;strokeColor=#d6b656;" vertex="1" parent="1">
          <mxGeometry x="200" y="520" width="160" height="160" as="geometry" />
        </mxCell>
        <mxCell id="7VRKnyWv5zTI4xvbnFR_-10" value="RETURN&lt;div&gt;SUCCESS&lt;br&gt;&lt;div&gt;Treasure found&lt;/div&gt;&lt;/div&gt;" style="ellipse;whiteSpace=wrap;html=1;fontSize=13;textShadow=0;spacing=6;fillColor=#d5e8d4;strokeColor=#82b366;" vertex="1" parent="1">
          <mxGeometry x="220" y="360" width="120" height="80" as="geometry" />
        </mxCell>
        <mxCell id="7VRKnyWv5zTI4xvbnFR_-11" value="IF&lt;br&gt;&lt;div&gt;&lt;i&gt;n&lt;/i&gt;&amp;nbsp;has not&amp;nbsp;&lt;/div&gt;&lt;div&gt;been visited&lt;/div&gt;" style="rhombus;whiteSpace=wrap;html=1;fontSize=13;textShadow=0;spacing=6;fillColor=#fff2cc;strokeColor=#d6b656;" vertex="1" parent="1">
          <mxGeometry x="440" y="520" width="160" height="160" as="geometry" />
        </mxCell>
        <mxCell id="7VRKnyWv5zTI4xvbnFR_-13" value="&lt;font&gt;FOR EACH&amp;nbsp;&lt;/font&gt;&lt;div&gt;&lt;font&gt;valid neighbor &lt;i&gt;m&lt;/i&gt; of &lt;i&gt;n&lt;/i&gt;&lt;/font&gt;&lt;div&gt;&lt;font&gt;IF&amp;nbsp;&lt;/font&gt;&lt;/div&gt;&lt;div&gt;&lt;font&gt;&lt;i&gt;m&lt;/i&gt;&amp;nbsp;has not&amp;nbsp;&lt;/font&gt;&lt;/div&gt;&lt;div&gt;&lt;font&gt;been visited&amp;nbsp;&lt;/font&gt;&lt;/div&gt;&lt;/div&gt;" style="rhombus;whiteSpace=wrap;html=1;fontSize=13;textShadow=0;spacing=6;fillColor=#fff2cc;strokeColor=#d6b656;" vertex="1" parent="1">
          <mxGeometry x="400" y="720" width="170" height="160" as="geometry" />
        </mxCell>
        <mxCell id="7VRKnyWv5zTI4xvbnFR_-14" value="&lt;span style=&quot;color: rgb(4, 12, 40); font-family: &amp;quot;Google Sans&amp;quot;, Roboto, Arial, sans-serif; text-align: start; background-color: rgb(255, 255, 255);&quot;&gt;•&amp;nbsp;&lt;/span&gt;Calculate cost (A* only)&lt;br&gt;&lt;div&gt;&lt;span style=&quot;background-color: rgb(255, 255, 255); color: rgb(4, 12, 40); font-family: &amp;quot;Google Sans&amp;quot;, Roboto, Arial, sans-serif; text-align: start;&quot;&gt;•&amp;nbsp;&lt;/span&gt;Add &lt;i&gt;m&lt;/i&gt; to the frontier&lt;/div&gt;" style="whiteSpace=wrap;html=1;aspect=fixed;fontSize=13;textShadow=0;spacing=6;" vertex="1" parent="1">
          <mxGeometry x="620" y="730" width="120" height="120" as="geometry" />
        </mxCell>
        <mxCell id="7VRKnyWv5zTI4xvbnFR_-16" value="" style="endArrow=classic;html=1;rounded=0;fontSize=13;textShadow=0;spacing=6;" edge="1" parent="1">
          <mxGeometry width="50" height="50" relative="1" as="geometry">
            <mxPoint x="160" y="120" as="sourcePoint" />
            <mxPoint x="200" y="120" as="targetPoint" />
          </mxGeometry>
        </mxCell>
        <mxCell id="7VRKnyWv5zTI4xvbnFR_-17" value="" style="endArrow=classic;html=1;rounded=0;fontSize=13;textShadow=0;spacing=6;" edge="1" parent="1">
          <mxGeometry width="50" height="50" relative="1" as="geometry">
            <mxPoint x="400" y="119.5" as="sourcePoint" />
            <mxPoint x="440" y="119.5" as="targetPoint" />
          </mxGeometry>
        </mxCell>
        <mxCell id="7VRKnyWv5zTI4xvbnFR_-19" value="" style="endArrow=classic;html=1;rounded=0;fontSize=13;textShadow=0;spacing=6;" edge="1" parent="1">
          <mxGeometry relative="1" as="geometry">
            <mxPoint x="600" y="119.5" as="sourcePoint" />
            <mxPoint x="680" y="120" as="targetPoint" />
          </mxGeometry>
        </mxCell>
        <mxCell id="7VRKnyWv5zTI4xvbnFR_-20" value="&lt;font&gt;False&lt;/font&gt;" style="edgeLabel;resizable=0;html=1;;align=center;verticalAlign=middle;fontSize=13;textShadow=0;spacing=6;" connectable="0" vertex="1" parent="7VRKnyWv5zTI4xvbnFR_-19">
          <mxGeometry relative="1" as="geometry" />
        </mxCell>
        <mxCell id="7VRKnyWv5zTI4xvbnFR_-21" value="" style="endArrow=classic;html=1;rounded=0;entryX=0.405;entryY=-0.015;entryDx=0;entryDy=0;fontSize=13;textShadow=0;spacing=6;entryPerimeter=0;" edge="1" parent="1" target="7VRKnyWv5zTI4xvbnFR_-7">
          <mxGeometry relative="1" as="geometry">
            <mxPoint x="520" y="200" as="sourcePoint" />
            <mxPoint x="620" y="200" as="targetPoint" />
          </mxGeometry>
        </mxCell>
        <mxCell id="7VRKnyWv5zTI4xvbnFR_-22" value="True" style="edgeLabel;resizable=0;html=1;;align=center;verticalAlign=middle;fontSize=13;textShadow=0;spacing=6;" connectable="0" vertex="1" parent="7VRKnyWv5zTI4xvbnFR_-21">
          <mxGeometry relative="1" as="geometry" />
        </mxCell>
        <mxCell id="7VRKnyWv5zTI4xvbnFR_-24" value="" style="endArrow=classic;html=1;rounded=0;entryX=0.5;entryY=0;entryDx=0;entryDy=0;fontSize=13;" edge="1" parent="1" target="7VRKnyWv5zTI4xvbnFR_-11">
          <mxGeometry width="50" height="50" relative="1" as="geometry">
            <mxPoint x="520" y="480" as="sourcePoint" />
            <mxPoint x="570" y="430" as="targetPoint" />
          </mxGeometry>
        </mxCell>
        <mxCell id="7VRKnyWv5zTI4xvbnFR_-26" value="" style="endArrow=classic;html=1;rounded=0;entryX=1;entryY=0.5;entryDx=0;entryDy=0;fontSize=13;textShadow=0;spacing=6;" edge="1" parent="1" target="7VRKnyWv5zTI4xvbnFR_-9">
          <mxGeometry relative="1" as="geometry">
            <mxPoint x="439" y="600" as="sourcePoint" />
            <mxPoint x="440" y="677" as="targetPoint" />
          </mxGeometry>
        </mxCell>
        <mxCell id="7VRKnyWv5zTI4xvbnFR_-27" value="True" style="edgeLabel;resizable=0;html=1;;align=center;verticalAlign=middle;fontSize=13;textShadow=0;spacing=6;" connectable="0" vertex="1" parent="7VRKnyWv5zTI4xvbnFR_-26">
          <mxGeometry relative="1" as="geometry" />
        </mxCell>
        <mxCell id="7VRKnyWv5zTI4xvbnFR_-28" value="" style="endArrow=classic;html=1;rounded=0;fontSize=13;textShadow=0;spacing=6;" edge="1" parent="1" target="7VRKnyWv5zTI4xvbnFR_-10">
          <mxGeometry relative="1" as="geometry">
            <mxPoint x="279.5" y="520" as="sourcePoint" />
            <mxPoint x="280.5" y="597" as="targetPoint" />
          </mxGeometry>
        </mxCell>
        <mxCell id="7VRKnyWv5zTI4xvbnFR_-29" value="True" style="edgeLabel;resizable=0;html=1;;align=center;verticalAlign=middle;fontSize=13;textShadow=0;spacing=6;" connectable="0" vertex="1" parent="7VRKnyWv5zTI4xvbnFR_-28">
          <mxGeometry relative="1" as="geometry" />
        </mxCell>
        <mxCell id="7VRKnyWv5zTI4xvbnFR_-30" value="" style="endArrow=classic;html=1;rounded=0;fontSize=13;textShadow=0;spacing=6;entryX=0.5;entryY=0;entryDx=0;entryDy=0;" edge="1" parent="1" target="7VRKnyWv5zTI4xvbnFR_-33">
          <mxGeometry relative="1" as="geometry">
            <mxPoint x="279.5" y="680" as="sourcePoint" />
            <mxPoint x="260" y="760" as="targetPoint" />
          </mxGeometry>
        </mxCell>
        <mxCell id="7VRKnyWv5zTI4xvbnFR_-31" value="False" style="edgeLabel;resizable=0;html=1;;align=center;verticalAlign=middle;fontSize=13;textShadow=0;spacing=6;" connectable="0" vertex="1" parent="7VRKnyWv5zTI4xvbnFR_-30">
          <mxGeometry relative="1" as="geometry">
            <mxPoint as="offset" />
          </mxGeometry>
        </mxCell>
        <mxCell id="7VRKnyWv5zTI4xvbnFR_-33" value="Add &lt;i&gt;n&lt;/i&gt;&amp;nbsp;to the visited set" style="rounded=0;whiteSpace=wrap;html=1;fontSize=13;" vertex="1" parent="1">
          <mxGeometry x="200" y="760" width="160" height="80" as="geometry" />
        </mxCell>
        <mxCell id="7VRKnyWv5zTI4xvbnFR_-34" value="" style="endArrow=classic;html=1;rounded=0;entryX=0;entryY=0.5;entryDx=0;entryDy=0;fontSize=13;" edge="1" parent="1" target="7VRKnyWv5zTI4xvbnFR_-13">
          <mxGeometry width="50" height="50" relative="1" as="geometry">
            <mxPoint x="360" y="800" as="sourcePoint" />
            <mxPoint x="410" y="750" as="targetPoint" />
          </mxGeometry>
        </mxCell>
        <mxCell id="7VRKnyWv5zTI4xvbnFR_-35" value="" style="endArrow=classic;html=1;rounded=0;fontSize=13;" edge="1" parent="1">
          <mxGeometry width="50" height="50" relative="1" as="geometry">
            <mxPoint x="570" y="800" as="sourcePoint" />
            <mxPoint x="620" y="800" as="targetPoint" />
          </mxGeometry>
        </mxCell>
        <mxCell id="7VRKnyWv5zTI4xvbnFR_-36" value="" style="curved=1;endArrow=classic;html=1;rounded=0;exitX=0.5;exitY=0;exitDx=0;exitDy=0;" edge="1" parent="1" source="7VRKnyWv5zTI4xvbnFR_-14" target="7VRKnyWv5zTI4xvbnFR_-3">
          <mxGeometry width="50" height="50" relative="1" as="geometry">
            <mxPoint x="676" y="730" as="sourcePoint" />
            <mxPoint x="732" y="275" as="targetPoint" />
            <Array as="points">
              <mxPoint x="713" y="243" />
            </Array>
          </mxGeometry>
        </mxCell>
      </root>
    </mxGraphModel>
  </diagram>
</mxfile>
